<svg xmlns="http://www.w3.org/2000/svg" viewBox="0 0 643.78 416.29">
  <defs>
    <style>
      .b3259b8b-2717-4b49-9ff3-cd8769d6940f {
        fill: #f5eedb;
      }

      .\31 21ab5b5-4f88-4430-8791-026afa154abf {
        opacity: 0.24;
      }

      .c050ee8c-81d6-48e3-bf2b-9d8cbaf89b67 {
        fill: #9ac1bc;
      }

      .\37 e4004c9-9e64-495f-863e-c8e44bd53db3 {
        fill: #fff;
      }

      .\37 5707200-56d4-42c7-8c7e-08af0d7fd517 {
        fill: #927682;
      }

      .\31 8eb5fb1-1443-4d78-b199-5949f12b4305 {
        fill: #e99185;
      }
    </style>
  </defs>
  <title>about_me_1</title>
  <g id="1fea0252-ffde-4760-86e4-2bcdc090e766" data-name="Layer 2">
    <g id="d868bad5-bf83-4952-beac-8378d930d3b9" data-name="about_me">
      <g id="016e4ea4-32f9-4ecd-9a98-79c2fe36a968" data-name="logo">
        <rect id="c2831764-f9df-4c8a-bbc4-476054dd2796" data-name="beige" class="b3259b8b-2717-4b49-9ff3-cd8769d6940f" x="253.83" y="28.31" width="133.49" height="128.77" transform="translate(36.61 267.98) rotate(-47.81)"/>
        <rect id="eefc95e9-0583-4ff8-9160-89f02a35488f" data-name="blank" class="121ab5b5-4f88-4430-8791-026afa154abf" x="349.37" y="61.86" width="21.66" height="133.49" transform="translate(179.67 -208.58) rotate(42.19)"/>
        <g id="4e592f1f-2fe2-4d8d-b171-3d933c33b62d" data-name="green">
          <rect class="c050ee8c-81d6-48e3-bf2b-9d8cbaf89b67" x="257.73" y="259.12" width="133.49" height="128.77" transform="translate(-133.13 346.68) rotate(-47.81)"/>
          <rect class="121ab5b5-4f88-4430-8791-026afa154abf" x="353.44" y="292.82" width="21.66" height="133.49" transform="translate(335.82 -151.48) rotate(42.19)"/>
          <g>
            <path class="7e4004c9-9e64-495f-863e-c8e44bd53db3" d="M317.05,373c1.51,2.65,2.31,6.25-1.07,9.95-4.15,4.56-9.76,3.49-14.16-.52s-6.15-9.67-1.87-14.35a7.6,7.6,0,0,1,9.89-1.61l-.43.47a7.1,7.1,0,0,0-9,1.52c-4.11,4.51-2.25,9.73,1.88,13.5,3.91,3.56,9.34,5,13.33.58a7.31,7.31,0,0,0,1-9.07Z"/>
            <path class="7e4004c9-9e64-495f-863e-c8e44bd53db3" d="M316.55,367.27c-2.44-2.22-3.11-2.83-3.82-3.44l.39-.42c.6.46,1.87,1.62,3.25,2.88a6.59,6.59,0,0,1,.35-7.37l.45.41c-2,2.36-1.47,6.35,1.1,8.7l6,5.45-.41.45Z"/>
            <path class="7e4004c9-9e64-495f-863e-c8e44bd53db3" d="M323.84,362.55c3.45,3.16,7.06,3.29,9.26.88a5.29,5.29,0,0,0,.9-6.28l.41-.45a5.83,5.83,0,0,1-.89,7.08c-3.12,3.41-7.26,1.8-10-.7-3.55-3.24-4-7.19-1.55-9.92,3.14-3.43,7.13-1.76,9.25.18a5.39,5.39,0,0,1,.54.53Zm7.15-8.64c-2.68-2.45-6.11-3.12-8.63-.36-2.24,2.46-1.64,5.87,1.09,8.61Z"/>
            <path class="7e4004c9-9e64-495f-863e-c8e44bd53db3" d="M344.4,346.38a25,25,0,0,0,2.6,2.17l-.41.45a27.85,27.85,0,0,1-2.58-2.15c1.33,2.31.91,4.51-.94,6.54-2.44,2.68-5,2.29-6.57.84-2.39-2.18-1.68-4.93,1.15-8,1.16-1.27,1.83-2,2.59-2.79L338.68,342c-1.61-1.46-3.76-2.2-6.16.44-2.24,2.45-1.79,4.42-.23,6.12l-.41.45c-1.53-1.56-2.43-4,.25-7,2.43-2.66,4.88-2.39,6.82-.62Zm-3.76-2.61c-.71.74-1.55,1.66-2.61,2.82-2.74,3-3.11,5.34-1.12,7.15,1.71,1.57,4,1.16,5.76-.76,2.36-2.58,2.08-5.46-1-8.23Z"/>
            <path class="7e4004c9-9e64-495f-863e-c8e44bd53db3" d="M337.68,336.49l1.89-2.08-3.68-3.36.41-.44L340,334l2.52-2.77.41.37-2.53,2.76,8.39,7.66c1.21,1.1,2.33,1.67,3.59.29a3.73,3.73,0,0,0,.7-1l.4.37a3.35,3.35,0,0,1-.7,1c-1.34,1.48-2.52,1.47-4.51-.34L340,334.78l-1.89,2.08Z"/>
            <path class="7e4004c9-9e64-495f-863e-c8e44bd53db3" d="M338.81,323.86l.41-.44,2,1.85-.41.45Zm5.67,5.18.41-.45L356,338.71l-.41.45Z"/>
            <path class="7e4004c9-9e64-495f-863e-c8e44bd53db3" d="M362,320.92c3.73,3.4,4.08,7.32,1.39,10.26s-6.63,2.74-10.21-.51c-3.83-3.51-3.91-7.54-1.41-10.29S358.32,317.54,362,320.92Zm-8.41,9.26c2.95,2.69,6.79,3.49,9.4.64s1.71-6.58-1.4-9.41-6.87-3.45-9.46-.62S350.7,327.51,353.62,330.18Z"/>
            <path class="7e4004c9-9e64-495f-863e-c8e44bd53db3" d="M361.94,315.32c-1.09-1-2.47-2.22-2.72-2.44l.41-.45c.53.45,1.51,1.3,2.81,2.52a5.76,5.76,0,0,1,.79-7c1.69-1.86,4.49-2.78,7.71.16l7.07,6.45-.43.47-7-6.41c-2.21-2-4.88-2.5-6.95-.22-2.43,2.66-1.56,6.19,1,8.57l6.09,5.56-.4.44Z"/>
            <path class="7e4004c9-9e64-495f-863e-c8e44bd53db3" d="M378,308.66c2.22,1.33,4.16,1.09,6.15-1.1s1.88-4.38.47-5.66-2.76-1.46-6.13.7-4.65,2-6.08.71-1.72-3.53.43-5.9,4.54-2.28,6.38-.93l-.41.44c-1.39-.94-3.51-1.4-5.58.88s-1.6,4-.46,5c1.3,1.19,2.54,1.21,5.51-.74,3.38-2.23,5.09-2.18,6.72-.69,1.86,1.69,1.65,4.24-.45,6.54-2.38,2.61-4.71,2.65-7,1.17Z"/>
          </g>
        </g>
        <g id="7778e753-d46a-4a2f-985f-de6cb31688cb" data-name="purple">
          <rect class="75707200-56d4-42c7-8c7e-08af0d7fd517" x="376.87" y="88.37" width="221.27" height="221.27" transform="translate(259.92 -275.83) rotate(42.19)"/>
          <rect class="121ab5b5-4f88-4430-8791-026afa154abf" x="550.48" y="155.26" width="21.66" height="221.27" transform="translate(323.95 -308.06) rotate(42.19)"/>
          <g>
            <path class="7e4004c9-9e64-495f-863e-c8e44bd53db3" d="M471.72,311.15l5.92,11.58-.62.7-15.21-29.76.62-.7L494,304.57l-.65.72-12.26-4.52Zm8.51-10.65c-10-3.67-15.86-6-17.43-6.54l0,0c.65,1,4.61,8.67,8.57,16.4Z"/>
            <path class="7e4004c9-9e64-495f-863e-c8e44bd53db3" d="M493,296.9c3.27,1.93,6.11,1.56,9-1.67s2.7-6.46.62-8.32-4.06-2.11-9,1.1-6.8,3-8.91,1.1-2.57-5.16.57-8.66,6.63-3.39,9.34-1.44l-.59.66c-2.05-1.36-5.16-2-8.19,1.35-2.84,3.16-2.29,5.87-.61,7.38,1.91,1.72,3.74,1.74,8.07-1.16,4.94-3.3,7.45-3.25,9.86-1.09,2.74,2.46,2.47,6.21-.59,9.61-3.46,3.86-6.88,3.94-10.2,1.8Z"/>
            <path class="7e4004c9-9e64-495f-863e-c8e44bd53db3" d="M507.86,281.35l11.25,10.11-.6.66-19-17.1c-2.24-2-3.73-3.35-4.78-4.23l.6-.66c.75.61,3,2.6,4.34,3.84-1.87-3.41-2.07-7.17,1-10.53,3.5-3.89,9.15-3.81,14.13.66,6.23,5.6,6.16,11.32,2.81,15C514.63,282.37,511.42,282.76,507.86,281.35Zm6.28-16.53c-4.58-4.12-9.89-4.18-12.94-.78-3.44,3.82-2.63,9.08,2.38,13.59,4.42,4,9.36,5.37,13.33.95C520.2,274.92,519.38,269.53,514.14,264.82Z"/>
            <path class="7e4004c9-9e64-495f-863e-c8e44bd53db3" d="M502.61,245.16l.59-.66,3,2.7-.59.66Zm8.37,7.52.59-.65L528,266.75l-.59.66Z"/>
            <path class="7e4004c9-9e64-495f-863e-c8e44bd53db3" d="M522.21,251.46c-3.59-3.23-4.58-4.12-5.63-5l.57-.62c.88.67,2.76,2.36,4.8,4.2a9.66,9.66,0,0,1,.43-10.82l.66.59c-2.89,3.48-2.08,9.34,1.71,12.75l8.84,7.94-.59.66Z"/>
            <path class="7e4004c9-9e64-495f-863e-c8e44bd53db3" d="M547.59,237.49a38.84,38.84,0,0,0,3.84,3.15l-.6.66a41.45,41.45,0,0,1-3.8-3.12c2,3.38,1.38,6.61-1.31,9.61-3.56,4-7.29,3.4-9.63,1.3-3.53-3.17-2.52-7.21,1.6-11.8,1.69-1.88,2.66-3,3.77-4.12l-2.31-2.08c-2.38-2.13-5.54-3.18-9,.71-3.26,3.62-2.57,6.5-.27,9l-.59.66c-2.26-2.27-3.61-5.87.3-10.22,3.53-3.92,7.12-3.55,10-1Zm-5.54-3.79c-1,1.09-2.26,2.44-3.8,4.16-4,4.45-4.51,7.87-1.57,10.5,2.54,2.29,5.89,1.67,8.44-1.17,3.44-3.82,3-8-1.49-12.07Z"/>
            <path class="7e4004c9-9e64-495f-863e-c8e44bd53db3" d="M537.62,223l2.76-3.06-5.44-4.89.59-.66,5.44,4.89,3.67-4.09.6.54-3.68,4.08L554,231c1.78,1.6,3.42,2.43,5.26.38a5.26,5.26,0,0,0,1-1.46l.59.53a5.22,5.22,0,0,1-1,1.53c-2,2.17-3.68,2.17-6.62-.46l-12.23-11-2.76,3.07Z"/>
            <path class="7e4004c9-9e64-495f-863e-c8e44bd53db3" d="M539.14,204.51l.6-.66,3,2.69-.6.66Zm8.38,7.52.59-.66L564.5,226.1l-.6.66Z"/>
            <path class="7e4004c9-9e64-495f-863e-c8e44bd53db3" d="M573.18,199.93c5.5,4.95,6.06,10.7,2.15,15s-9.7,4.09-15-.65c-5.67-5.1-5.83-11-2.18-15.07S567.7,195,573.18,199.93Zm-12.24,13.68c4.35,3.91,10,5,13.79.83s2.44-9.67-2.14-13.79c-4.42-4-10.13-5-13.89-.8S556.62,209.73,560.94,213.61Z"/>
            <path class="7e4004c9-9e64-495f-863e-c8e44bd53db3" d="M573,191.72c-1.62-1.46-3.66-3.23-4-3.56l.59-.66c.79.65,2.24,1.89,4.15,3.68a8.47,8.47,0,0,1,1.09-10.29c2.46-2.74,6.56-4.12,11.31.15l10.45,9.39-.63.69-10.38-9.33c-3.27-2.94-7.19-3.61-10.22-.24-3.52,3.92-2.21,9.09,1.65,12.56l9,8.09-.59.66Z"/>
            <path class="7e4004c9-9e64-495f-863e-c8e44bd53db3" d="M596.47,181.77c3.28,1.93,6.11,1.56,9-1.67s2.7-6.46.62-8.32-4.07-2.11-9,1.1-6.81,3-8.92,1.1-2.57-5.16.57-8.66,6.63-3.4,9.34-1.44l-.59.66c-2-1.36-5.16-2-8.18,1.35-2.85,3.16-2.29,5.87-.61,7.38,1.91,1.71,3.73,1.74,8.07-1.16,4.94-3.3,7.45-3.25,9.86-1.09,2.73,2.46,2.46,6.21-.59,9.61-3.47,3.86-6.88,3.94-10.2,1.8Z"/>
          </g>
        </g>
        <g id="04c43b17-c2ed-4be0-a7a6-3fc6b7ef74ef" data-name="orange">
          <rect class="18eb5fb1-1443-4d78-b199-5949f12b4305" x="45.64" y="104.01" width="221.27" height="221.27" transform="matrix(0.74, 0.67, -0.67, 0.74, 184.63, -49.34)"/>
          <g id="13c0b33e-4b69-4771-9011-4642dfd4070e" data-name="words">
            <path class="7e4004c9-9e64-495f-863e-c8e44bd53db3" d="M147.84,309.34l-12.15,13.19,11.91,11,13.23-14.35.49.71-13.74,14.9-24.23-22.33,13.41-14.56.62.57L124.6,312.31,135.07,322l12.15-13.19Z"/>
            <path class="7e4004c9-9e64-495f-863e-c8e44bd53db3" d="M150.94,279.23l21.76,20c1.21,1.11,3.13,2.82,4.13,3.74l-.6.66c-.62-.51-2.54-2.22-4.37-3.9,1.78,3.11,2.43,6.83-1.25,10.82-3.42,3.72-9.43,4.36-15.28-1-6.2-5.71-5.86-12-2.24-15.95a8.14,8.14,0,0,1,9.61-2.28l-12.39-11.42Zm5,29.55c5.16,4.76,10.7,4.83,14.06,1.18,3.9-4.23,3.1-9.17-2.68-14.5-5.06-4.66-9.79-5.33-13.63-1.16S151.11,304.34,155.93,308.78Z"/>
            <path class="7e4004c9-9e64-495f-863e-c8e44bd53db3" d="M189.28,280.12c1.68,1.55,3.95,3.58,4.71,4.28l-.63.69c-.28-.19-2.65-2.25-4.3-3.84A8.22,8.22,0,0,1,188,291.6c-2.22,2.41-6.56,4.91-11.9,0l-11-10.15.63-.69L177,291.16c2.83,2.6,6.88,3.59,10.37-.2,3.26-3.54,3.2-8.31-1.79-12.91l-9.4-8.66.67-.72Z"/>
            <path class="7e4004c9-9e64-495f-863e-c8e44bd53db3" d="M206.25,261.77c2.66,4.36,1.95,8-.94,11.17-4.12,4.48-10.1,4.06-15.61-1s-6.19-11.31-2.16-15.68a8.45,8.45,0,0,1,11-1.54l-.67.72c-3.21-1.69-6.73-1.88-9.81,1.46-4.06,4.41-2.16,10.23,2.28,14.32,4.75,4.38,10.33,5.51,14.35,1.13,2.73-3,2.89-6.31.89-9.87Z"/>
            <path class="7e4004c9-9e64-495f-863e-c8e44bd53db3" d="M221.76,246.53a42.53,42.53,0,0,0,4,3.38l-.63.69a41.62,41.62,0,0,1-4-3.35c2,3.59,1.38,7-1.51,10.13-3.81,4.13-7.74,3.5-10.19,1.25-3.68-3.4-2.56-7.65,1.85-12.44,1.81-2,2.85-3.1,4-4.3l-2.41-2.22c-2.48-2.29-5.81-3.44-9.55.62-3.49,3.79-2.8,6.84-.41,9.49l-.63.69c-2.35-2.42-3.74-6.24.45-10.79,3.78-4.09,7.57-3.65,10.57-.89Zm-5.8-4.07c-1.11,1.14-2.42,2.55-4.07,4.34-4.28,4.65-4.86,8.25-1.8,11.07,2.66,2.44,6.21,1.83,8.94-1.13,3.68-4,3.26-8.45-1.42-12.76Z"/>
            <path class="7e4004c9-9e64-495f-863e-c8e44bd53db3" d="M211.42,231.15l3-3.2-5.68-5.24.63-.69,5.68,5.24,3.94-4.27.62.57-3.94,4.27,12.95,11.93c1.86,1.71,3.58,2.6,5.55.47a5.82,5.82,0,0,0,1.1-1.54l.62.57a5.36,5.36,0,0,1-1.1,1.6c-2.09,2.27-3.91,2.25-7-.57L215,228.52l-3,3.2Z"/>
            <path class="7e4004c9-9e64-495f-863e-c8e44bd53db3" d="M213.27,211.59l.63-.68,3.14,2.88-.64.69Zm8.74,8.06.64-.69,17.11,15.77-.64.69Z"/>
            <path class="7e4004c9-9e64-495f-863e-c8e44bd53db3" d="M249.27,207.21c5.75,5.29,6.26,11.37,2.07,15.91s-10.3,4.2-15.8-.87c-5.93-5.46-6-11.72-2.11-15.95S243.55,201.94,249.27,207.21Zm-13.1,14.28c4.54,4.19,10.49,5.47,14.55,1.06s2.7-10.18-2.09-14.59c-4.61-4.25-10.62-5.39-14.65-1S231.66,217.34,236.17,221.49Z"/>
            <path class="7e4004c9-9e64-495f-863e-c8e44bd53db3" d="M249.17,198.53c-1.68-1.55-3.81-3.45-4.19-3.8l.63-.69c.82.7,2.34,2,4.34,3.93a8.94,8.94,0,0,1,1.27-10.85c2.64-2.86,7-4.26,11.94.31l10.92,10-.67.72-10.84-10c-3.41-3.14-7.55-3.9-10.79-.39-3.77,4.1-2.45,9.58,1.58,13.29l9.39,8.66-.63.69Z"/>
          </g>
          <rect class="121ab5b5-4f88-4430-8791-026afa154abf" x="219.4" y="171.04" width="21.66" height="221.27" transform="translate(248.79 -81.65) rotate(42.19)"/>
        </g>
      </g>
    </g>
  </g>
</svg>
