<svg xmlns="http://www.w3.org/2000/svg" viewBox="0 0 303.03 241.03">
  <defs>
    <style>
      .ff0371a4-3987-4f51-b1fe-d812ba0ba0aa {
        fill: #2e4249;
      }

      .\34 3bea848-28db-4f30-bc8b-5bfcabba96cb {
        fill: #e99185;
      }

      .fba15c4e-3859-4285-add3-10100accf1be {
        opacity: 0.24;
      }

      .\38 e08ff5e-8bc0-4dfb-9c2e-b842f6e70962 {
        fill: #927682;
      }

      .\36 b74929b-3ef0-4e4a-a6cb-20500b1753df {
        fill: #f5eedb;
      }

      .\34 240cf9c-6a53-4455-8bee-2bf989e40651 {
        fill: #9ac1bc;
      }
    </style>
  </defs>
  <title>logo_2</title>
  <g id="f10a3fb4-4065-4411-8c4f-1e0fccc6f31e" data-name="Layer 2">
    <g id="cf4736e4-beee-4421-b712-1dc7ab2309fa" data-name="Layer 1">
      <g>
        <path class="ff0371a4-3987-4f51-b1fe-d812ba0ba0aa" d="M5,196.74l11.7-.08c9.66-.07,16.39,6.61,16.46,17.16s-6.41,17.93-16.27,18L5.2,231.9Zm3,32.55,8.43-.06c9.24-.06,13.73-6.59,13.67-15.24-.05-7.69-4.19-14.81-13.88-14.74l-8.43.06Z" transform="translate(-4.96)"/>
        <path class="ff0371a4-3987-4f51-b1fe-d812ba0ba0aa" d="M57.44,226.72a29.6,29.6,0,0,0,.38,4.82h-2.5a15.84,15.84,0,0,1-.48-3.83c-.84,1.85-3,4.46-8.19,4.5-5.84,0-8.38-3.72-8.41-7.5,0-5.53,4.23-8.08,11.77-8.13l4.75,0,0-2.54c0-2.5-.79-5.83-6.47-5.79-5,0-5.76,2.67-6.29,4.73l-2.61,0c.28-2.81,2-7.08,8.94-7.13,5.76,0,9,2.36,9,7.91Zm-2.62-7.95-4.88,0c-5.55,0-9,1.51-8.93,5.8,0,3.13,2.27,5.27,5.77,5.24,7.12-.05,8.09-4.79,8-10.18Z" transform="translate(-4.96)"/>
        <path class="ff0371a4-3987-4f51-b1fe-d812ba0ba0aa" d="M65.6,212.68c0-2.21,0-4.33-.1-6.34l2.56,0c.11.8.18,4,.14,4.74,1.08-2.55,3.12-5.36,8.29-5.4,4.48,0,8.46,2.48,8.51,9.4l.11,16.29-2.62,0-.11-15.88c0-4.44-1.89-7.32-6.23-7.29-5.92,0-7.94,5-7.9,10.41l.09,12.85-2.62,0Z" transform="translate(-4.96)"/>
        <path class="ff0371a4-3987-4f51-b1fe-d812ba0ba0aa" d="M93.05,194.27l2.62,0,0,4.91-2.61,0Zm.08,11.88,2.62,0,.17,25.14-2.61,0Z" transform="translate(-4.96)"/>
        <path class="ff0371a4-3987-4f51-b1fe-d812ba0ba0aa" d="M104.7,219c.09,6.41,3.35,10.39,8.15,10.36s6.26-2.67,7.14-4.73l2.67,0c-1,3.32-3.67,7.14-9.9,7.18-7.65.05-10.68-6.5-10.72-12.89-.05-7.21,3.49-13.41,10.84-13.46,7.77,0,10.29,6.61,10.32,11.37,0,.71,0,1.41,0,2.07Zm15.79-2.37c-.09-4.93-2.79-8.8-7.69-8.76-5.14,0-7.45,3.64-8,8.87Z" transform="translate(-4.96)"/>
        <path class="ff0371a4-3987-4f51-b1fe-d812ba0ba0aa" d="M129.6,231l-.25-37,2.61,0,.26,37Z" transform="translate(-4.96)"/>
        <path class="ff0371a4-3987-4f51-b1fe-d812ba0ba0aa" d="M154,195.71l12.33-.08c6.77,0,10.4,3.51,10.43,8.58a7.6,7.6,0,0,1-5.35,7.72,8.88,8.88,0,0,1,6.72,8.63c0,7-5.2,10.19-11.35,10.23l-12.53.08Zm11.53,15c6,0,8.3-2.3,8.27-6.34,0-3.45-2.44-6.21-7.32-6.18l-9.69.07.08,12.51ZM157,228.27l9.83-.06c4.61,0,8.42-2.36,8.39-7.49,0-4.44-2.89-7.45-9.92-7.41l-8.4.06Z" transform="translate(-4.96)"/>
        <path class="ff0371a4-3987-4f51-b1fe-d812ba0ba0aa" d="M205.71,217.9c0,7-3.79,13.25-11.3,13.3-6.81.05-11.08-5.5-11.13-13.09-.05-7.21,3.9-13.21,11.2-13.26C201.19,204.81,205.66,210,205.71,217.9Zm-19.67.19c0,5.95,3.27,10.72,8.56,10.68S203,224.27,203,218c0-5.92-3.07-10.72-8.6-10.68C188.67,207.33,186,212.07,186,218.09Z" transform="translate(-4.96)"/>
        <path class="ff0371a4-3987-4f51-b1fe-d812ba0ba0aa" d="M211.74,205.34c5.12,14.22,7.38,20.18,8.24,22.88H220c1-3.07,2.94-8.91,7.67-23l2.72,0-9.25,26.65c-2.61,7.45-4.41,9.14-9,9.17a17.52,17.52,0,0,1-2.34-.14l0-2.58a16.65,16.65,0,0,0,2.26.13c3.59,0,4.74-1.77,6.55-6.91l-9.78-26.17Z" transform="translate(-4.96)"/>
        <path class="ff0371a4-3987-4f51-b1fe-d812ba0ba0aa" d="M254.87,193.16l.21,29.79c0,2.41,0,4.72.1,7.23l-2.51,0c-.11-.6-.18-2.94-.19-4.19-1.23,3.06-4,4.82-8.38,4.85-6.54,0-10.5-5.25-10.55-12.8-.05-7.74,4.18-13.5,11-13.55,5,0,7,2.09,7.78,3.69l-.1-15Zm-18.55,24.78c0,6.84,3.6,10.52,7.9,10.49,6.6-.05,8.35-4.62,8.3-11.39,0-6.44-1.6-10.14-8-10.09C239.58,207,236.27,211,236.32,217.94Z" transform="translate(-4.96)"/>
        <path class="ff0371a4-3987-4f51-b1fe-d812ba0ba0aa" d="M263.9,217.88c.1,6.41,3.36,10.39,8.15,10.36s6.26-2.68,7.15-4.73l2.66,0c-1,3.32-3.67,7.14-9.89,7.18-7.66.05-10.69-6.5-10.73-12.89-.05-7.21,3.49-13.41,10.85-13.46,7.76,0,10.28,6.61,10.31,11.37,0,.71,0,1.41,0,2.06Zm15.79-2.37c-.09-4.93-2.79-8.8-7.69-8.77-5.13,0-7.45,3.65-8,8.88Z" transform="translate(-4.96)"/>
        <path class="ff0371a4-3987-4f51-b1fe-d812ba0ba0aa" d="M288.48,211.15c0-2.21,0-4.33-.1-6.34h2.56c.11.8.18,4,.14,4.74,1.08-2.55,3.12-5.37,8.28-5.41,4.49,0,8.47,2.48,8.51,9.41l.12,16.28-2.62,0L305.26,214c0-4.44-1.89-7.33-6.23-7.3-5.92,0-7.94,5-7.9,10.42l.09,12.85H288.6Z" transform="translate(-4.96)"/>
      </g>
      <rect class="43bea848-28db-4f30-bc8b-5bfcabba96cb" x="38.53" y="42.98" width="91.42" height="91.42" transform="matrix(0.74, 0.67, -0.67, 0.74, 76.42, -33.6)"/>
      <rect class="fba15c4e-3859-4285-add3-10100accf1be" x="110.32" y="70.67" width="8.95" height="91.42" transform="translate(102.93 -46.94) rotate(42.19)"/>
      <rect class="8e08ff5e-8bc0-4dfb-9c2e-b842f6e70962" x="175.38" y="36.51" width="91.42" height="91.42" transform="translate(107.53 -127.17) rotate(42.19)"/>
      <rect class="6b74929b-3ef0-4e4a-a6cb-20500b1753df" x="124.55" y="11.7" width="55.15" height="53.2" transform="translate(16.63 125.3) rotate(-47.81)"/>
      <rect class="4240cf9c-6a53-4455-8bee-2bf989e40651" x="126.16" y="107.06" width="55.15" height="53.2" transform="translate(-53.5 157.81) rotate(-47.81)"/>
      <rect class="fba15c4e-3859-4285-add3-10100accf1be" x="247.11" y="64.15" width="8.95" height="91.42" transform="translate(133.98 -140.49) rotate(42.19)"/>
      <rect class="fba15c4e-3859-4285-add3-10100accf1be" x="165.7" y="120.98" width="8.95" height="55.15" transform="translate(138.89 -75.8) rotate(42.19)"/>
      <rect class="fba15c4e-3859-4285-add3-10100accf1be" x="164.02" y="25.56" width="8.95" height="55.15" transform="translate(74.37 -99.39) rotate(42.19)"/>
    </g>
  </g>
</svg>
